# xmcd CD database file
#
# Track frame offsets:
#	150
#	13037
#	27099
#	39870
#	51841
#	65641
#	79135
#	92478
#	104169
#	117835
#	128751
#	139177
#	150262
#	160799
#	172777
#	185158
#	197734
#	208418
#	219670
#	230252
#
# Disc length: 3253 seconds
#
# Revision: 4
# Processed by: cddbd v1.5.2PL0 Copyright (c) Steve Scherf et al.
# Submitted via: CDex 1.70beta2
#
DISCID=100cb314
DTITLE=Various Artist - Collected Blues Songs
DYEAR=2006
DGENRE=Blues
TTITLE0=Muddy Waters - Hoochie Coochie Man
TTITLE1=John Lee Hooker - I'm In The Mood
TTITLE2=Edna McGriff - Edna's Blues
TTITLE3=Little Walter - My Babe
TTITLE4=Willie Dixon - Walkin' The Blues
TTITLE5=Wynonie 'Mr.Blues' Harris - Mr.Blues Is Coming To Town
TTITLE6=Jimmy Witherspoon - There Ain't Nothing Better
TTITLE7=The Enchanters - Housewife Blues
TTITLE8=T-Bone Walker - Call It Stormy Monday (But Tuesday Is Just As Bad)
TTITLE9=Smokey Hogg - When I've Been Drinkin'
TTITLE10=Lowell Fulson - Chuck With The Boys
TTITLE11=Big Bill Broonzy - Baby Please Don't Go
TTITLE12=Tommy Douglas - Lights Out
TTITLE13=Julia Lee - Decent Woman Blues
TTITLE14=Clarence 'Gatemouth' Brown - Guitar In My Hand
TTITLE15=Walter Brown - Lou Cindy Lou
TTITLE16=B.B. King - Everyday I Have The Blues
TTITLE17=Smokey Hogg - I Gotta Ride
TTITLE18=Bus Moten - On The Gravy Train
TTITLE19=Floyd Dixon - Married Woman
EXTD=YEAR: 2006
EXTT0=
EXTT1=
EXTT2=
EXTT3=
EXTT4=
EXTT5=
EXTT6=
EXTT7=
EXTT8=
EXTT9=
EXTT10=
EXTT11=
EXTT12=
EXTT13=
EXTT14=
EXTT15=
EXTT16=
EXTT17=
EXTT18=
EXTT19=
PLAYORDER=
